%FSLAX34Y34*%
G04 Gerber Fmt 3.4, Leading zero omitted, Abs format*
G04 (created by PCBNEW (2014-03-19 BZR 4756)-product) date Sun 06 Jul 2014 23:01:42 BST*
%MOIN*%
G01*
G70*
G90*
G04 APERTURE LIST*
%ADD10C,0.005906*%
%ADD11C,0.010000*%
%ADD12C,0.015000*%
%ADD13C,0.008000*%
%ADD14C,0.003500*%
%ADD15C,0.003000*%
G04 APERTURE END LIST*
G54D10*
G54D11*
X55775Y-44803D02*
X54775Y-44803D01*
X55775Y-43803D02*
X54775Y-43803D01*
X54775Y-43803D02*
X54775Y-44803D01*
X54775Y-44803D02*
X54775Y-45803D01*
X54775Y-45803D02*
X55775Y-45803D01*
X55775Y-45803D02*
X55775Y-43803D01*
X50314Y-40996D02*
X50314Y-41996D01*
X49314Y-40996D02*
X49314Y-41996D01*
X49314Y-41996D02*
X50314Y-41996D01*
X50314Y-41996D02*
X51314Y-41996D01*
X51314Y-41996D02*
X51314Y-40996D01*
X51314Y-40996D02*
X49314Y-40996D01*
X50314Y-47610D02*
X50314Y-48610D01*
X49314Y-47610D02*
X49314Y-48610D01*
X49314Y-48610D02*
X50314Y-48610D01*
X50314Y-48610D02*
X51314Y-48610D01*
X51314Y-48610D02*
X51314Y-47610D01*
X51314Y-47610D02*
X49314Y-47610D01*
X50602Y-44803D02*
X51602Y-44803D01*
X50602Y-45803D02*
X51602Y-45803D01*
X51602Y-45803D02*
X51602Y-44803D01*
X51602Y-44803D02*
X51602Y-43803D01*
X51602Y-43803D02*
X50602Y-43803D01*
X50602Y-43803D02*
X50602Y-45803D01*
G54D12*
X51810Y-40512D02*
X55748Y-40512D01*
X51810Y-39527D02*
X51810Y-43465D01*
X51810Y-43465D02*
X55748Y-43465D01*
X55748Y-43465D02*
X55748Y-39527D01*
X55748Y-39527D02*
X51810Y-39527D01*
X55748Y-49094D02*
X51810Y-49094D01*
X55748Y-50079D02*
X55748Y-46141D01*
X55748Y-46141D02*
X51810Y-46141D01*
X51810Y-46141D02*
X51810Y-50079D01*
X51810Y-50079D02*
X55748Y-50079D01*
X47047Y-46772D02*
X47047Y-42834D01*
X46062Y-46772D02*
X50000Y-46772D01*
X50000Y-46772D02*
X50000Y-42834D01*
X50000Y-42834D02*
X46062Y-42834D01*
X46062Y-42834D02*
X46062Y-46772D01*
G54D10*
X54320Y-44557D02*
X53553Y-44557D01*
X53553Y-44557D02*
X53553Y-45049D01*
X53553Y-45049D02*
X54320Y-45049D01*
X54320Y-45049D02*
X54320Y-44557D01*
G54D13*
X49945Y-40822D02*
X49945Y-40322D01*
X50136Y-40322D01*
X50184Y-40346D01*
X50207Y-40369D01*
X50231Y-40417D01*
X50231Y-40488D01*
X50207Y-40536D01*
X50184Y-40560D01*
X50136Y-40584D01*
X49945Y-40584D01*
X50707Y-40822D02*
X50422Y-40822D01*
X50564Y-40822D02*
X50564Y-40322D01*
X50517Y-40393D01*
X50469Y-40441D01*
X50422Y-40465D01*
X49945Y-47436D02*
X49945Y-46936D01*
X50136Y-46936D01*
X50184Y-46960D01*
X50207Y-46984D01*
X50231Y-47031D01*
X50231Y-47103D01*
X50207Y-47150D01*
X50184Y-47174D01*
X50136Y-47198D01*
X49945Y-47198D01*
X50422Y-46984D02*
X50445Y-46960D01*
X50493Y-46936D01*
X50612Y-46936D01*
X50660Y-46960D01*
X50684Y-46984D01*
X50707Y-47031D01*
X50707Y-47079D01*
X50684Y-47150D01*
X50398Y-47436D01*
X50707Y-47436D01*
X52352Y-45093D02*
X51852Y-45093D01*
X51852Y-44902D01*
X51875Y-44855D01*
X51899Y-44831D01*
X51947Y-44807D01*
X52018Y-44807D01*
X52066Y-44831D01*
X52090Y-44855D01*
X52114Y-44902D01*
X52114Y-45093D01*
X51852Y-44641D02*
X51852Y-44331D01*
X52042Y-44498D01*
X52042Y-44426D01*
X52066Y-44379D01*
X52090Y-44355D01*
X52137Y-44331D01*
X52256Y-44331D01*
X52304Y-44355D01*
X52328Y-44379D01*
X52352Y-44426D01*
X52352Y-44569D01*
X52328Y-44617D01*
X52304Y-44641D01*
G54D14*
X52112Y-40180D02*
X52112Y-39780D01*
X52265Y-39780D01*
X52303Y-39800D01*
X52322Y-39819D01*
X52341Y-39857D01*
X52341Y-39914D01*
X52322Y-39952D01*
X52303Y-39971D01*
X52265Y-39990D01*
X52112Y-39990D01*
X52722Y-40180D02*
X52493Y-40180D01*
X52607Y-40180D02*
X52607Y-39780D01*
X52569Y-39838D01*
X52531Y-39876D01*
X52493Y-39895D01*
X53103Y-40180D02*
X52874Y-40180D01*
X52988Y-40180D02*
X52988Y-39780D01*
X52950Y-39838D01*
X52912Y-39876D01*
X52874Y-39895D01*
X53408Y-43987D02*
X53465Y-44006D01*
X53484Y-44025D01*
X53503Y-44063D01*
X53503Y-44120D01*
X53484Y-44158D01*
X53465Y-44177D01*
X53427Y-44197D01*
X53274Y-44197D01*
X53274Y-43797D01*
X53408Y-43797D01*
X53446Y-43816D01*
X53465Y-43835D01*
X53484Y-43873D01*
X53484Y-43911D01*
X53465Y-43949D01*
X53446Y-43968D01*
X53408Y-43987D01*
X53274Y-43987D01*
X53674Y-43797D02*
X53674Y-44120D01*
X53693Y-44158D01*
X53712Y-44177D01*
X53750Y-44197D01*
X53827Y-44197D01*
X53865Y-44177D01*
X53884Y-44158D01*
X53903Y-44120D01*
X53903Y-43797D01*
X54074Y-44177D02*
X54131Y-44197D01*
X54227Y-44197D01*
X54265Y-44177D01*
X54284Y-44158D01*
X54303Y-44120D01*
X54303Y-44082D01*
X54284Y-44044D01*
X54265Y-44025D01*
X54227Y-44006D01*
X54150Y-43987D01*
X54112Y-43968D01*
X54093Y-43949D01*
X54074Y-43911D01*
X54074Y-43873D01*
X54093Y-43835D01*
X54112Y-43816D01*
X54150Y-43797D01*
X54246Y-43797D01*
X54303Y-43816D01*
X54474Y-49865D02*
X54474Y-49465D01*
X54627Y-49465D01*
X54665Y-49485D01*
X54684Y-49504D01*
X54703Y-49542D01*
X54703Y-49599D01*
X54684Y-49637D01*
X54665Y-49656D01*
X54627Y-49675D01*
X54474Y-49675D01*
X54855Y-49504D02*
X54874Y-49485D01*
X54913Y-49465D01*
X55008Y-49465D01*
X55046Y-49485D01*
X55065Y-49504D01*
X55084Y-49542D01*
X55084Y-49580D01*
X55065Y-49637D01*
X54836Y-49865D01*
X55084Y-49865D01*
X55236Y-49504D02*
X55255Y-49485D01*
X55293Y-49465D01*
X55389Y-49465D01*
X55427Y-49485D01*
X55446Y-49504D01*
X55465Y-49542D01*
X55465Y-49580D01*
X55446Y-49637D01*
X55217Y-49865D01*
X55465Y-49865D01*
X53408Y-45561D02*
X53465Y-45580D01*
X53484Y-45599D01*
X53503Y-45637D01*
X53503Y-45694D01*
X53484Y-45733D01*
X53465Y-45752D01*
X53427Y-45771D01*
X53274Y-45771D01*
X53274Y-45371D01*
X53408Y-45371D01*
X53446Y-45390D01*
X53465Y-45409D01*
X53484Y-45447D01*
X53484Y-45485D01*
X53465Y-45523D01*
X53446Y-45542D01*
X53408Y-45561D01*
X53274Y-45561D01*
X53674Y-45371D02*
X53674Y-45694D01*
X53693Y-45733D01*
X53712Y-45752D01*
X53750Y-45771D01*
X53827Y-45771D01*
X53865Y-45752D01*
X53884Y-45733D01*
X53903Y-45694D01*
X53903Y-45371D01*
X54074Y-45752D02*
X54131Y-45771D01*
X54227Y-45771D01*
X54265Y-45752D01*
X54284Y-45733D01*
X54303Y-45694D01*
X54303Y-45656D01*
X54284Y-45618D01*
X54265Y-45599D01*
X54227Y-45580D01*
X54150Y-45561D01*
X54112Y-45542D01*
X54093Y-45523D01*
X54074Y-45485D01*
X54074Y-45447D01*
X54093Y-45409D01*
X54112Y-45390D01*
X54150Y-45371D01*
X54246Y-45371D01*
X54303Y-45390D01*
X46716Y-46469D02*
X46316Y-46469D01*
X46316Y-46317D01*
X46335Y-46279D01*
X46354Y-46260D01*
X46392Y-46241D01*
X46449Y-46241D01*
X46487Y-46260D01*
X46506Y-46279D01*
X46525Y-46317D01*
X46525Y-46469D01*
X46316Y-46108D02*
X46316Y-45860D01*
X46468Y-45993D01*
X46468Y-45936D01*
X46487Y-45898D01*
X46506Y-45879D01*
X46544Y-45860D01*
X46640Y-45860D01*
X46678Y-45879D01*
X46697Y-45898D01*
X46716Y-45936D01*
X46716Y-46050D01*
X46697Y-46089D01*
X46678Y-46108D01*
X46316Y-45727D02*
X46316Y-45479D01*
X46468Y-45612D01*
X46468Y-45555D01*
X46487Y-45517D01*
X46506Y-45498D01*
X46544Y-45479D01*
X46640Y-45479D01*
X46678Y-45498D01*
X46697Y-45517D01*
X46716Y-45555D01*
X46716Y-45669D01*
X46697Y-45708D01*
X46678Y-45727D01*
X49670Y-45650D02*
X49689Y-45669D01*
X49708Y-45726D01*
X49708Y-45765D01*
X49689Y-45822D01*
X49651Y-45860D01*
X49613Y-45879D01*
X49537Y-45898D01*
X49479Y-45898D01*
X49403Y-45879D01*
X49365Y-45860D01*
X49327Y-45822D01*
X49308Y-45765D01*
X49308Y-45726D01*
X49327Y-45669D01*
X49346Y-45650D01*
X49308Y-45403D02*
X49308Y-45326D01*
X49327Y-45288D01*
X49365Y-45250D01*
X49441Y-45231D01*
X49575Y-45231D01*
X49651Y-45250D01*
X49689Y-45288D01*
X49708Y-45326D01*
X49708Y-45403D01*
X49689Y-45441D01*
X49651Y-45479D01*
X49575Y-45498D01*
X49441Y-45498D01*
X49365Y-45479D01*
X49327Y-45441D01*
X49308Y-45403D01*
X49708Y-45060D02*
X49308Y-45060D01*
X49708Y-44831D01*
X49308Y-44831D01*
X49708Y-44641D02*
X49308Y-44641D01*
X49708Y-44412D01*
X49308Y-44412D01*
X49746Y-44317D02*
X49746Y-44012D01*
X49346Y-43936D02*
X49327Y-43917D01*
X49308Y-43879D01*
X49308Y-43784D01*
X49327Y-43746D01*
X49346Y-43726D01*
X49384Y-43707D01*
X49422Y-43707D01*
X49479Y-43726D01*
X49708Y-43955D01*
X49708Y-43707D01*
G54D15*
X53917Y-44434D02*
X53877Y-44377D01*
X53848Y-44434D02*
X53848Y-44314D01*
X53894Y-44314D01*
X53905Y-44319D01*
X53911Y-44325D01*
X53917Y-44337D01*
X53917Y-44354D01*
X53911Y-44365D01*
X53905Y-44371D01*
X53894Y-44377D01*
X53848Y-44377D01*
X54031Y-44434D02*
X53962Y-44434D01*
X53997Y-44434D02*
X53997Y-44314D01*
X53985Y-44331D01*
X53974Y-44342D01*
X53962Y-44348D01*
M02*
