%FSLAX34Y34*%
G04 Gerber Fmt 3.4, Leading zero omitted, Abs format*
G04 (created by PCBNEW (2014-03-19 BZR 4756)-product) date Sun 06 Jul 2014 23:01:42 BST*
%MOIN*%
G01*
G70*
G90*
G04 APERTURE LIST*
%ADD10C,0.005906*%
%ADD11R,0.080000X0.080000*%
%ADD12O,0.080000X0.080000*%
%ADD13O,0.078700X0.118700*%
%ADD14O,0.118700X0.078700*%
%ADD15R,0.133900X0.133900*%
%ADD16C,0.010000*%
%ADD17C,0.015748*%
G04 APERTURE END LIST*
G54D10*
G54D11*
X55275Y-44303D03*
G54D12*
X55275Y-45303D03*
G54D11*
X49814Y-41496D03*
G54D12*
X50814Y-41496D03*
G54D11*
X49814Y-48110D03*
G54D12*
X50814Y-48110D03*
G54D11*
X51102Y-45303D03*
G54D12*
X51102Y-44303D03*
G54D13*
X52795Y-41496D03*
X54763Y-41496D03*
X54763Y-48110D03*
X52795Y-48110D03*
G54D14*
X48031Y-45787D03*
X48031Y-43819D03*
G54D15*
X47874Y-40787D03*
X47874Y-48818D03*
G54D16*
X49814Y-41496D02*
X49814Y-42046D01*
X49972Y-48110D02*
X49972Y-47560D01*
X48031Y-43819D02*
X48775Y-43819D01*
X51279Y-46980D02*
X52409Y-48110D01*
X50552Y-46980D02*
X51279Y-46980D01*
X50552Y-44303D02*
X50552Y-46980D01*
X50552Y-46980D02*
X49972Y-47560D01*
X52952Y-48110D02*
X52409Y-48110D01*
X49607Y-42253D02*
X49814Y-42046D01*
X49607Y-43358D02*
X49607Y-42253D01*
X49235Y-43358D02*
X49607Y-43358D01*
X48775Y-43819D02*
X49235Y-43358D01*
X49607Y-43358D02*
X50552Y-44303D01*
X50827Y-44303D02*
X50552Y-44303D01*
X50827Y-44303D02*
X51102Y-44303D01*
X54763Y-41496D02*
X54763Y-42239D01*
X54763Y-44303D02*
X54763Y-42239D01*
X51102Y-44303D02*
X54763Y-44303D01*
X54763Y-44303D02*
X55275Y-44303D01*
G54D10*
G36*
X55492Y-49822D02*
X55471Y-49822D01*
X55471Y-48328D01*
X55471Y-47892D01*
X55418Y-47621D01*
X55264Y-47391D01*
X55034Y-47237D01*
X54763Y-47183D01*
X54492Y-47237D01*
X54262Y-47391D01*
X54108Y-47621D01*
X54055Y-47892D01*
X54055Y-48328D01*
X54108Y-48599D01*
X54262Y-48828D01*
X54492Y-48982D01*
X54763Y-49036D01*
X55034Y-48982D01*
X55264Y-48828D01*
X55418Y-48599D01*
X55471Y-48328D01*
X55471Y-49822D01*
X48957Y-49822D01*
X48957Y-45787D01*
X48903Y-45516D01*
X48750Y-45286D01*
X48520Y-45132D01*
X48249Y-45078D01*
X47813Y-45078D01*
X47542Y-45132D01*
X47312Y-45286D01*
X47159Y-45516D01*
X47105Y-45787D01*
X47159Y-46058D01*
X47312Y-46288D01*
X47542Y-46441D01*
X47813Y-46495D01*
X48249Y-46495D01*
X48520Y-46441D01*
X48750Y-46288D01*
X48903Y-46058D01*
X48957Y-45787D01*
X48957Y-49822D01*
X48858Y-49822D01*
X48858Y-49551D01*
X48858Y-49425D01*
X48858Y-48086D01*
X48810Y-47970D01*
X48721Y-47882D01*
X48606Y-47834D01*
X48480Y-47834D01*
X47141Y-47834D01*
X47026Y-47882D01*
X46937Y-47970D01*
X46889Y-48086D01*
X46889Y-48212D01*
X46889Y-49551D01*
X46937Y-49666D01*
X47026Y-49755D01*
X47141Y-49803D01*
X47267Y-49803D01*
X48606Y-49803D01*
X48721Y-49755D01*
X48810Y-49666D01*
X48858Y-49551D01*
X48858Y-49822D01*
X46929Y-49822D01*
X46883Y-49822D01*
X46649Y-49776D01*
X46479Y-49662D01*
X46365Y-49492D01*
X46318Y-49258D01*
X46318Y-40347D01*
X46365Y-40114D01*
X46479Y-39943D01*
X46649Y-39829D01*
X46883Y-39783D01*
X55492Y-39783D01*
X55492Y-43588D01*
X55128Y-43588D01*
X55128Y-42305D01*
X55264Y-42214D01*
X55418Y-41984D01*
X55471Y-41713D01*
X55471Y-41278D01*
X55418Y-41007D01*
X55264Y-40777D01*
X55034Y-40623D01*
X54763Y-40569D01*
X54492Y-40623D01*
X54262Y-40777D01*
X54108Y-41007D01*
X54055Y-41278D01*
X54055Y-41713D01*
X54108Y-41984D01*
X54262Y-42214D01*
X54398Y-42305D01*
X54398Y-43938D01*
X53503Y-43938D01*
X53503Y-41713D01*
X53503Y-41278D01*
X53450Y-41007D01*
X53296Y-40777D01*
X53066Y-40623D01*
X52795Y-40569D01*
X52524Y-40623D01*
X52294Y-40777D01*
X52140Y-41007D01*
X52087Y-41278D01*
X52087Y-41713D01*
X52140Y-41984D01*
X52294Y-42214D01*
X52524Y-42368D01*
X52795Y-42422D01*
X53066Y-42368D01*
X53296Y-42214D01*
X53450Y-41984D01*
X53503Y-41713D01*
X53503Y-43938D01*
X51711Y-43938D01*
X51607Y-43783D01*
X51375Y-43628D01*
X51102Y-43574D01*
X50828Y-43628D01*
X50596Y-43783D01*
X50577Y-43812D01*
X49972Y-43207D01*
X49972Y-42404D01*
X50073Y-42304D01*
X50135Y-42211D01*
X50277Y-42211D01*
X50393Y-42163D01*
X50450Y-42105D01*
X50527Y-42156D01*
X50800Y-42211D01*
X50828Y-42211D01*
X51102Y-42156D01*
X51334Y-42001D01*
X51489Y-41769D01*
X51543Y-41496D01*
X51489Y-41222D01*
X51334Y-40990D01*
X51102Y-40835D01*
X50828Y-40781D01*
X50800Y-40781D01*
X50527Y-40835D01*
X50450Y-40886D01*
X50393Y-40829D01*
X50277Y-40781D01*
X50152Y-40781D01*
X49352Y-40781D01*
X49236Y-40829D01*
X49147Y-40917D01*
X49100Y-41033D01*
X49100Y-41158D01*
X49100Y-41958D01*
X49147Y-42074D01*
X49236Y-42163D01*
X49258Y-42172D01*
X49242Y-42253D01*
X49242Y-42993D01*
X49235Y-42993D01*
X49096Y-43021D01*
X48977Y-43100D01*
X48858Y-43219D01*
X48858Y-41519D01*
X48858Y-41394D01*
X48858Y-40055D01*
X48810Y-39939D01*
X48721Y-39850D01*
X48606Y-39802D01*
X48480Y-39802D01*
X47141Y-39802D01*
X47026Y-39850D01*
X46937Y-39939D01*
X46889Y-40055D01*
X46889Y-40180D01*
X46889Y-41519D01*
X46937Y-41635D01*
X47026Y-41723D01*
X47141Y-41771D01*
X47267Y-41771D01*
X48606Y-41771D01*
X48721Y-41723D01*
X48810Y-41635D01*
X48858Y-41519D01*
X48858Y-43219D01*
X48754Y-43323D01*
X48750Y-43318D01*
X48520Y-43164D01*
X48249Y-43110D01*
X47813Y-43110D01*
X47542Y-43164D01*
X47312Y-43318D01*
X47159Y-43548D01*
X47105Y-43819D01*
X47159Y-44090D01*
X47312Y-44320D01*
X47542Y-44473D01*
X47813Y-44527D01*
X48249Y-44527D01*
X48520Y-44473D01*
X48750Y-44320D01*
X48851Y-44168D01*
X48914Y-44156D01*
X48914Y-44156D01*
X49033Y-44077D01*
X49387Y-43723D01*
X49456Y-43723D01*
X50187Y-44454D01*
X50187Y-46829D01*
X49714Y-47302D01*
X49652Y-47395D01*
X49352Y-47395D01*
X49236Y-47443D01*
X49147Y-47531D01*
X49100Y-47647D01*
X49100Y-47772D01*
X49100Y-48572D01*
X49147Y-48688D01*
X49236Y-48777D01*
X49352Y-48825D01*
X49477Y-48825D01*
X50277Y-48825D01*
X50393Y-48777D01*
X50450Y-48719D01*
X50527Y-48770D01*
X50800Y-48825D01*
X50828Y-48825D01*
X51102Y-48770D01*
X51334Y-48615D01*
X51489Y-48383D01*
X51543Y-48110D01*
X51489Y-47836D01*
X51334Y-47604D01*
X51102Y-47449D01*
X50828Y-47395D01*
X50800Y-47395D01*
X50616Y-47431D01*
X50703Y-47345D01*
X51128Y-47345D01*
X52087Y-48304D01*
X52087Y-48328D01*
X52140Y-48599D01*
X52294Y-48828D01*
X52524Y-48982D01*
X52795Y-49036D01*
X53066Y-48982D01*
X53296Y-48828D01*
X53450Y-48599D01*
X53503Y-48328D01*
X53503Y-47892D01*
X53450Y-47621D01*
X53296Y-47391D01*
X53066Y-47237D01*
X52795Y-47183D01*
X52524Y-47237D01*
X52294Y-47391D01*
X52259Y-47444D01*
X51537Y-46722D01*
X51419Y-46643D01*
X51279Y-46615D01*
X50917Y-46615D01*
X50917Y-46018D01*
X51565Y-46018D01*
X51680Y-45970D01*
X51769Y-45881D01*
X51817Y-45765D01*
X51817Y-45640D01*
X51817Y-44840D01*
X51769Y-44724D01*
X51712Y-44668D01*
X54560Y-44668D01*
X54560Y-44765D01*
X54608Y-44881D01*
X54666Y-44939D01*
X54615Y-45015D01*
X54560Y-45289D01*
X54560Y-45317D01*
X54615Y-45590D01*
X54770Y-45822D01*
X55001Y-45977D01*
X55275Y-46032D01*
X55492Y-45989D01*
X55492Y-49822D01*
X55492Y-49822D01*
G37*
G54D17*
X55492Y-49822D02*
X55471Y-49822D01*
X55471Y-48328D01*
X55471Y-47892D01*
X55418Y-47621D01*
X55264Y-47391D01*
X55034Y-47237D01*
X54763Y-47183D01*
X54492Y-47237D01*
X54262Y-47391D01*
X54108Y-47621D01*
X54055Y-47892D01*
X54055Y-48328D01*
X54108Y-48599D01*
X54262Y-48828D01*
X54492Y-48982D01*
X54763Y-49036D01*
X55034Y-48982D01*
X55264Y-48828D01*
X55418Y-48599D01*
X55471Y-48328D01*
X55471Y-49822D01*
X48957Y-49822D01*
X48957Y-45787D01*
X48903Y-45516D01*
X48750Y-45286D01*
X48520Y-45132D01*
X48249Y-45078D01*
X47813Y-45078D01*
X47542Y-45132D01*
X47312Y-45286D01*
X47159Y-45516D01*
X47105Y-45787D01*
X47159Y-46058D01*
X47312Y-46288D01*
X47542Y-46441D01*
X47813Y-46495D01*
X48249Y-46495D01*
X48520Y-46441D01*
X48750Y-46288D01*
X48903Y-46058D01*
X48957Y-45787D01*
X48957Y-49822D01*
X48858Y-49822D01*
X48858Y-49551D01*
X48858Y-49425D01*
X48858Y-48086D01*
X48810Y-47970D01*
X48721Y-47882D01*
X48606Y-47834D01*
X48480Y-47834D01*
X47141Y-47834D01*
X47026Y-47882D01*
X46937Y-47970D01*
X46889Y-48086D01*
X46889Y-48212D01*
X46889Y-49551D01*
X46937Y-49666D01*
X47026Y-49755D01*
X47141Y-49803D01*
X47267Y-49803D01*
X48606Y-49803D01*
X48721Y-49755D01*
X48810Y-49666D01*
X48858Y-49551D01*
X48858Y-49822D01*
X46929Y-49822D01*
X46883Y-49822D01*
X46649Y-49776D01*
X46479Y-49662D01*
X46365Y-49492D01*
X46318Y-49258D01*
X46318Y-40347D01*
X46365Y-40114D01*
X46479Y-39943D01*
X46649Y-39829D01*
X46883Y-39783D01*
X55492Y-39783D01*
X55492Y-43588D01*
X55128Y-43588D01*
X55128Y-42305D01*
X55264Y-42214D01*
X55418Y-41984D01*
X55471Y-41713D01*
X55471Y-41278D01*
X55418Y-41007D01*
X55264Y-40777D01*
X55034Y-40623D01*
X54763Y-40569D01*
X54492Y-40623D01*
X54262Y-40777D01*
X54108Y-41007D01*
X54055Y-41278D01*
X54055Y-41713D01*
X54108Y-41984D01*
X54262Y-42214D01*
X54398Y-42305D01*
X54398Y-43938D01*
X53503Y-43938D01*
X53503Y-41713D01*
X53503Y-41278D01*
X53450Y-41007D01*
X53296Y-40777D01*
X53066Y-40623D01*
X52795Y-40569D01*
X52524Y-40623D01*
X52294Y-40777D01*
X52140Y-41007D01*
X52087Y-41278D01*
X52087Y-41713D01*
X52140Y-41984D01*
X52294Y-42214D01*
X52524Y-42368D01*
X52795Y-42422D01*
X53066Y-42368D01*
X53296Y-42214D01*
X53450Y-41984D01*
X53503Y-41713D01*
X53503Y-43938D01*
X51711Y-43938D01*
X51607Y-43783D01*
X51375Y-43628D01*
X51102Y-43574D01*
X50828Y-43628D01*
X50596Y-43783D01*
X50577Y-43812D01*
X49972Y-43207D01*
X49972Y-42404D01*
X50073Y-42304D01*
X50135Y-42211D01*
X50277Y-42211D01*
X50393Y-42163D01*
X50450Y-42105D01*
X50527Y-42156D01*
X50800Y-42211D01*
X50828Y-42211D01*
X51102Y-42156D01*
X51334Y-42001D01*
X51489Y-41769D01*
X51543Y-41496D01*
X51489Y-41222D01*
X51334Y-40990D01*
X51102Y-40835D01*
X50828Y-40781D01*
X50800Y-40781D01*
X50527Y-40835D01*
X50450Y-40886D01*
X50393Y-40829D01*
X50277Y-40781D01*
X50152Y-40781D01*
X49352Y-40781D01*
X49236Y-40829D01*
X49147Y-40917D01*
X49100Y-41033D01*
X49100Y-41158D01*
X49100Y-41958D01*
X49147Y-42074D01*
X49236Y-42163D01*
X49258Y-42172D01*
X49242Y-42253D01*
X49242Y-42993D01*
X49235Y-42993D01*
X49096Y-43021D01*
X48977Y-43100D01*
X48858Y-43219D01*
X48858Y-41519D01*
X48858Y-41394D01*
X48858Y-40055D01*
X48810Y-39939D01*
X48721Y-39850D01*
X48606Y-39802D01*
X48480Y-39802D01*
X47141Y-39802D01*
X47026Y-39850D01*
X46937Y-39939D01*
X46889Y-40055D01*
X46889Y-40180D01*
X46889Y-41519D01*
X46937Y-41635D01*
X47026Y-41723D01*
X47141Y-41771D01*
X47267Y-41771D01*
X48606Y-41771D01*
X48721Y-41723D01*
X48810Y-41635D01*
X48858Y-41519D01*
X48858Y-43219D01*
X48754Y-43323D01*
X48750Y-43318D01*
X48520Y-43164D01*
X48249Y-43110D01*
X47813Y-43110D01*
X47542Y-43164D01*
X47312Y-43318D01*
X47159Y-43548D01*
X47105Y-43819D01*
X47159Y-44090D01*
X47312Y-44320D01*
X47542Y-44473D01*
X47813Y-44527D01*
X48249Y-44527D01*
X48520Y-44473D01*
X48750Y-44320D01*
X48851Y-44168D01*
X48914Y-44156D01*
X48914Y-44156D01*
X49033Y-44077D01*
X49387Y-43723D01*
X49456Y-43723D01*
X50187Y-44454D01*
X50187Y-46829D01*
X49714Y-47302D01*
X49652Y-47395D01*
X49352Y-47395D01*
X49236Y-47443D01*
X49147Y-47531D01*
X49100Y-47647D01*
X49100Y-47772D01*
X49100Y-48572D01*
X49147Y-48688D01*
X49236Y-48777D01*
X49352Y-48825D01*
X49477Y-48825D01*
X50277Y-48825D01*
X50393Y-48777D01*
X50450Y-48719D01*
X50527Y-48770D01*
X50800Y-48825D01*
X50828Y-48825D01*
X51102Y-48770D01*
X51334Y-48615D01*
X51489Y-48383D01*
X51543Y-48110D01*
X51489Y-47836D01*
X51334Y-47604D01*
X51102Y-47449D01*
X50828Y-47395D01*
X50800Y-47395D01*
X50616Y-47431D01*
X50703Y-47345D01*
X51128Y-47345D01*
X52087Y-48304D01*
X52087Y-48328D01*
X52140Y-48599D01*
X52294Y-48828D01*
X52524Y-48982D01*
X52795Y-49036D01*
X53066Y-48982D01*
X53296Y-48828D01*
X53450Y-48599D01*
X53503Y-48328D01*
X53503Y-47892D01*
X53450Y-47621D01*
X53296Y-47391D01*
X53066Y-47237D01*
X52795Y-47183D01*
X52524Y-47237D01*
X52294Y-47391D01*
X52259Y-47444D01*
X51537Y-46722D01*
X51419Y-46643D01*
X51279Y-46615D01*
X50917Y-46615D01*
X50917Y-46018D01*
X51565Y-46018D01*
X51680Y-45970D01*
X51769Y-45881D01*
X51817Y-45765D01*
X51817Y-45640D01*
X51817Y-44840D01*
X51769Y-44724D01*
X51712Y-44668D01*
X54560Y-44668D01*
X54560Y-44765D01*
X54608Y-44881D01*
X54666Y-44939D01*
X54615Y-45015D01*
X54560Y-45289D01*
X54560Y-45317D01*
X54615Y-45590D01*
X54770Y-45822D01*
X55001Y-45977D01*
X55275Y-46032D01*
X55492Y-45989D01*
X55492Y-49822D01*
M02*
